<svg width="409" height="38" viewBox="0 0 409 38" fill="none" xmlns="http://www.w3.org/2000/svg">
<path d="M392.724 36.3V22.05L382.624 0.799988H389.424L395.724 15.05L402.024 0.799988H408.824L398.824 22.05V36.3H392.724Z" fill="black"/>
<path d="M353.444 37.1C344.794 37.1 339.844 30.05 339.844 18.6C339.844 7.1 344.794 0 353.444 0C360.544 0 365.044 4.85 366.294 12.8L359.944 13.2C359.144 8.1 356.844 5.6 353.444 5.6C348.994 5.6 346.244 10.1 346.244 18.6C346.244 27.05 348.994 31.5 353.444 31.5C357.044 31.5 359.244 29 360.094 23.4L366.394 23.75C365.244 32.1 360.694 37.1 353.444 37.1Z" fill="black"/>
<path d="M299.463 36.3V30.75H307.713V6.34999H299.463V0.799988H322.063V6.34999H313.813V30.75H322.063V36.3H299.463Z" fill="black"/>
<path d="M257.983 36.3V0.799988H264.083V30.75H280.583V36.3H257.983Z" fill="black"/>
<path d="M225.802 37.1C217.202 37.1 212.402 30.2 212.402 18.6C212.402 7 217.202 0 225.802 0C234.402 0 239.202 7 239.202 18.6C239.202 30.2 234.402 37.1 225.802 37.1ZM225.802 31.45C230.352 31.45 232.802 27.05 232.802 18.6C232.802 10.15 230.352 5.65 225.802 5.65C221.252 5.65 218.802 10.15 218.802 18.6C218.802 27.05 221.252 31.45 225.802 31.45Z" fill="black"/>
<path d="M172.222 36.3V0.799988H183.672C191.022 0.799988 196.122 5.29999 196.122 12.2C196.122 19.05 191.022 23.5 183.672 23.5H178.322V36.3H172.222ZM182.922 17.9C187.322 17.9 189.722 15.8 189.722 12.1C189.722 8.39999 187.322 6.34999 182.922 6.34999H178.322V17.9H182.922Z" fill="black"/>
<path d="M129.041 36.3V0.799988H135.941L146.541 25V0.799988H152.641V36.3H145.741L135.141 12.1V36.3H129.041Z" fill="black"/>
<path d="M87.561 36.3V0.799988H109.761V6.34999H93.661V15.7H109.161V21.2H93.661V30.75H110.161V36.3H87.561Z" fill="black"/>
<path d="M44.7805 36.3V0.799988H56.2305C63.5805 0.799988 68.6805 5.29999 68.6805 12.2C68.6805 19.05 63.5805 23.5 56.2305 23.5H50.8805V36.3H44.7805ZM55.4805 17.9C59.8805 17.9 62.2805 15.8 62.2805 12.1C62.2805 8.39999 59.8805 6.34999 55.4805 6.34999H50.8805V17.9H55.4805Z" fill="black"/>
<path d="M13.4 37.1C4.8 37.1 0 30.2 0 18.6C0 7 4.8 0 13.4 0C22 0 26.8 7 26.8 18.6C26.8 30.2 22 37.1 13.4 37.1ZM13.4 31.45C17.95 31.45 20.4 27.05 20.4 18.6C20.4 10.15 17.95 5.65 13.4 5.65C8.85 5.65 6.4 10.15 6.4 18.6C6.4 27.05 8.85 31.45 13.4 31.45Z" fill="black"/>
</svg>
