<svg width="256" height="256" viewBox="0 0 256 256" fill="none" xmlns="http://www.w3.org/2000/svg">
<path d="M144.072 156.612V101.248H161.929C173.391 101.248 181.345 108.266 181.345 119.027C181.345 129.709 173.391 136.649 161.929 136.649H153.585V156.612H144.072ZM160.759 127.916C167.621 127.916 171.364 124.641 171.364 118.871C171.364 113.1 167.621 109.903 160.759 109.903H153.585V127.916H160.759Z" fill="black"/>
<path d="M95.1325 157.859C81.7204 157.859 74.2346 147.098 74.2346 129.008C74.2346 110.917 81.7204 100 95.1325 100C108.545 100 116.03 110.917 116.03 129.008C116.03 147.098 108.545 157.859 95.1325 157.859ZM95.1325 149.048C102.228 149.048 106.049 142.186 106.049 129.008C106.049 115.829 102.228 108.811 95.1325 108.811C88.0366 108.811 84.2157 115.829 84.2157 129.008C84.2157 142.186 88.0366 149.048 95.1325 149.048Z" fill="black"/>
<path d="M37.6631 179.591H0V79H37.6631V91.7493H13.802V166.842H37.6631V179.591Z" fill="black"/>
<path d="M218.337 179.591V166.842H242.198V91.7493H218.337V79H256V179.591H218.337Z" fill="black"/>
</svg>
