<svg width="40" height="10" viewBox="0 0 40 10" fill="none" xmlns="http://www.w3.org/2000/svg">
<path d="M35.108 9.4771C34.6904 9.4771 34.321 9.40891 34 9.27255C33.6818 9.13335 33.4318 8.92312 33.25 8.64187C33.0682 8.36062 32.9773 8.00266 32.9773 7.568C32.9773 7.21005 33.0384 6.90465 33.1605 6.65181C33.2827 6.39613 33.4531 6.18732 33.6719 6.02539C33.8906 5.86346 34.1449 5.73988 34.4347 5.65465C34.7273 5.56942 35.0426 5.51403 35.3807 5.48846C35.7472 5.46005 36.0412 5.42596 36.2628 5.38619C36.4872 5.34357 36.6492 5.28533 36.7486 5.21147C36.848 5.13477 36.8978 5.03391 36.8978 4.90891V4.89187C36.8978 4.72141 36.8324 4.59073 36.7017 4.49982C36.571 4.40891 36.4034 4.36346 36.1989 4.36346C35.9745 4.36346 35.7912 4.41317 35.6492 4.51261C35.51 4.6092 35.4262 4.75835 35.3978 4.96005H33.233C33.2614 4.56232 33.3878 4.19584 33.6122 3.86062C33.8395 3.52255 34.1705 3.25266 34.6051 3.05096C35.0398 2.84641 35.5824 2.74414 36.233 2.74414C36.7017 2.74414 37.1222 2.79954 37.4943 2.91033C37.8665 3.01829 38.1833 3.17028 38.4446 3.3663C38.706 3.55948 38.9049 3.78675 39.0412 4.04812C39.1804 4.30664 39.25 4.58789 39.25 4.89187V9.37482H37.0512V8.45437H37C36.8693 8.69869 36.7103 8.89613 36.5228 9.0467C36.3381 9.19727 36.1264 9.30664 35.8878 9.37482C35.652 9.443 35.3921 9.4771 35.108 9.4771ZM35.875 7.99414C36.054 7.99414 36.2216 7.95721 36.3779 7.88335C36.537 7.80948 36.6662 7.70295 36.7656 7.56374C36.8651 7.42454 36.9148 7.2555 36.9148 7.05664V6.51119C36.8523 6.53675 36.7855 6.5609 36.7145 6.58363C36.6463 6.60636 36.5725 6.62766 36.4929 6.64755C36.4162 6.66744 36.3338 6.6859 36.2458 6.70295C36.1605 6.71999 36.071 6.73562 35.9773 6.74982C35.7955 6.77823 35.6463 6.82511 35.5299 6.89045C35.4162 6.95295 35.331 7.03107 35.2742 7.12482C35.2202 7.21573 35.1932 7.318 35.1932 7.43164C35.1932 7.61346 35.2571 7.75266 35.385 7.84925C35.5128 7.94585 35.6762 7.99414 35.875 7.99414Z" fill="black"/>
<path d="M28.5332 9.375V2.82955H30.8855V9.375H28.5332ZM29.7093 2.14773C29.3912 2.14773 29.1184 2.04261 28.8912 1.83239C28.6639 1.62216 28.5502 1.36932 28.5502 1.07386C28.5502 0.778409 28.6639 0.525568 28.8912 0.315341C29.1184 0.105114 29.3912 0 29.7093 0C30.0304 0 30.3031 0.105114 30.5275 0.315341C30.7548 0.525568 30.8684 0.778409 30.8684 1.07386C30.8684 1.36932 30.7548 1.62216 30.5275 1.83239C30.3031 2.04261 30.0304 2.14773 29.7093 2.14773Z" fill="black"/>
<path d="M26.6643 2.83008L24.4654 9.37553H21.7382L19.5393 2.83008H22.0109L23.0677 7.15962H23.1359L24.1927 2.83008H26.6643Z" fill="black"/>
<path d="M15.319 6.5119V2.83008H17.6713V9.37553H15.4383V8.13122H15.3702C15.2281 8.54883 14.9795 8.87553 14.6244 9.11133C14.2693 9.34428 13.8474 9.46076 13.3588 9.46076C12.9014 9.46076 12.5008 9.35565 12.1571 9.14542C11.8162 8.93519 11.5506 8.64542 11.3602 8.2761C11.1727 7.90678 11.0775 7.48349 11.0747 7.00622V2.83008H13.427V6.5119C13.4298 6.83576 13.5122 7.09002 13.6741 7.27468C13.8389 7.45934 14.069 7.55167 14.3645 7.55167C14.5605 7.55167 14.7295 7.51048 14.8716 7.42809C15.0165 7.34286 15.1273 7.22354 15.204 7.07014C15.2835 6.91389 15.3219 6.72781 15.319 6.5119Z" fill="black"/>
<path d="M2.55682 9.37571H0L2.88068 0.648438H6.11932L9 9.37571H6.44318L4.53409 3.05185H4.46591L2.55682 9.37571ZM2.07955 5.93253H6.88636V7.70526H2.07955V5.93253Z" fill="black"/>
</svg>
