<svg width="32" height="32" viewBox="0 0 32 32" fill="none" xmlns="http://www.w3.org/2000/svg">
<path d="M27.4999 21.1362L15.9999 27.8425L4.49991 21.1362C4.27221 21.0229 4.00987 21.0005 3.76629 21.0738C3.5227 21.147 3.31618 21.3103 3.18875 21.5304C3.06132 21.7506 3.02256 22.011 3.08037 22.2587C3.13818 22.5064 3.2882 22.7228 3.49991 22.8637L15.4999 29.8637C15.6528 29.9529 15.8266 29.9999 16.0037 29.9999C16.1807 29.9999 16.3545 29.9529 16.5074 29.8637L28.5074 22.8637C28.6227 22.7985 28.7238 22.7111 28.805 22.6065C28.8862 22.5018 28.9458 22.3821 28.9803 22.2543C29.0149 22.1265 29.0237 21.993 29.0063 21.8618C28.9888 21.7305 28.9455 21.604 28.8788 21.4896C28.8121 21.3752 28.7233 21.2752 28.6176 21.1954C28.512 21.1156 28.3915 21.0576 28.2632 21.0247C28.1349 20.9918 28.0014 20.9848 27.8704 21.0039C27.7393 21.0231 27.6134 21.068 27.4999 21.1362Z" fill="black"/>
<path d="M27.4999 15.1362L15.9999 21.8425L4.49991 15.1362C4.27221 15.0229 4.00987 15.0005 3.76629 15.0738C3.5227 15.147 3.31618 15.3103 3.18875 15.5304C3.06132 15.7506 3.02256 16.011 3.08037 16.2587C3.13818 16.5064 3.2882 16.7228 3.49991 16.8637L15.4999 23.8637C15.6528 23.9529 15.8266 23.9999 16.0037 23.9999C16.1807 23.9999 16.3545 23.9529 16.5074 23.8637L28.5074 16.8637C28.6227 16.7985 28.7238 16.7111 28.805 16.6065C28.8862 16.5018 28.9458 16.3821 28.9803 16.2543C29.0149 16.1265 29.0237 15.993 29.0063 15.8618C28.9888 15.7305 28.9455 15.604 28.8788 15.4896C28.8121 15.3752 28.7233 15.2752 28.6176 15.1954C28.512 15.1156 28.3915 15.0576 28.2632 15.0247C28.1349 14.9918 28.0014 14.9848 27.8704 15.0039C27.7393 15.0231 27.6134 15.068 27.4999 15.1362Z" fill="black"/>
<path d="M3.49999 10.8638L15.5 17.8638C15.6529 17.9529 15.8267 17.9999 16.0037 17.9999C16.1807 17.9999 16.3546 17.9529 16.5075 17.8638L28.5075 10.8638C28.6584 10.7757 28.7837 10.6496 28.8707 10.498C28.9578 10.3465 29.0036 10.1748 29.0036 10C29.0036 9.82523 28.9578 9.65352 28.8707 9.50196C28.7837 9.35041 28.6584 9.22432 28.5075 9.13625L16.5075 2.13625C16.3546 2.04708 16.1807 2.0001 16.0037 2.0001C15.8267 2.0001 15.6529 2.04708 15.5 2.13625L3.49999 9.13625C3.34903 9.22432 3.22379 9.35041 3.13675 9.50196C3.04971 9.65352 3.00391 9.82523 3.00391 10C3.00391 10.1748 3.04971 10.3465 3.13675 10.498C3.22379 10.6496 3.34903 10.7757 3.49999 10.8638Z" fill="black"/>
</svg>
