<svg width="39" height="13" viewBox="0 0 39 13" fill="none" xmlns="http://www.w3.org/2000/svg">
<path d="M34.4769 12.2261C34.4129 12.2261 34.3409 12.2101 34.2609 12.1781C33.9889 12.0581 33.9128 11.8661 34.0328 11.6021L37.9088 3.05815C38.0288 2.80215 38.2208 2.73015 38.4848 2.84215C38.7568 2.95415 38.8329 3.14215 38.7129 3.40615L34.8248 11.9501C34.7448 12.1341 34.6289 12.2261 34.4769 12.2261ZM35.8089 9.16615C35.6889 9.22215 35.5768 9.23415 35.4728 9.20215C35.3688 9.16215 35.2848 9.08215 35.2208 8.96215L32.5449 3.41815C32.4889 3.29815 32.4808 3.18615 32.5208 3.08215C32.5608 2.97815 32.6409 2.89815 32.7609 2.84215C32.8809 2.78615 32.9928 2.77815 33.0968 2.81815C33.2008 2.85015 33.2809 2.92615 33.3369 3.04615L35.9648 8.59015C36.0288 8.71015 36.0489 8.82215 36.0249 8.92615C36.0009 9.03015 35.9289 9.11015 35.8089 9.16615Z" fill="black"/>
<path d="M31.3782 9.372C31.0582 9.372 30.7702 9.284 30.5142 9.108C30.2662 8.932 30.0702 8.688 29.9262 8.376C29.7902 8.064 29.7222 7.704 29.7222 7.296V0.456C29.7222 0.32 29.7622 0.212 29.8422 0.132C29.9302 0.0439999 30.0422 0 30.1782 0C30.3142 0 30.4222 0.0439999 30.5022 0.132C30.5902 0.212 30.6342 0.32 30.6342 0.456V7.296C30.6342 7.64 30.7022 7.92 30.8382 8.136C30.9822 8.352 31.1622 8.46 31.3782 8.46H31.6782C31.7982 8.46 31.8942 8.504 31.9662 8.592C32.0382 8.672 32.0742 8.78 32.0742 8.916C32.0742 9.052 32.0222 9.164 31.9182 9.252C31.8222 9.332 31.6942 9.372 31.5342 9.372H31.3782Z" fill="black"/>
<path d="M27.1534 9.37195C27.0094 9.37195 26.8934 9.33195 26.8054 9.25195C26.7254 9.16395 26.6854 9.04795 26.6854 8.90395V3.27595C26.6854 3.13195 26.7254 3.01995 26.8054 2.93995C26.8934 2.85195 27.0094 2.80795 27.1534 2.80795C27.2894 2.80795 27.3974 2.85195 27.4774 2.93995C27.5654 3.01995 27.6094 3.13195 27.6094 3.27595V8.90395C27.6094 9.04795 27.5654 9.16395 27.4774 9.25195C27.3974 9.33195 27.2894 9.37195 27.1534 9.37195ZM27.1414 1.55995C26.9654 1.55995 26.8134 1.49595 26.6854 1.36795C26.5574 1.23995 26.4934 1.08395 26.4934 0.899953C26.4934 0.699954 26.5574 0.543953 26.6854 0.431953C26.8214 0.311953 26.9774 0.251953 27.1534 0.251953C27.3214 0.251953 27.4694 0.311953 27.5974 0.431953C27.7334 0.543953 27.8014 0.699954 27.8014 0.899953C27.8014 1.08395 27.7374 1.23995 27.6094 1.36795C27.4814 1.49595 27.3254 1.55995 27.1414 1.55995Z" fill="black"/>
<path d="M24.0003 9.37038C23.8643 9.37038 23.7523 9.32638 23.6643 9.23838C23.5763 9.15038 23.5323 9.04238 23.5323 8.91438V5.79438C23.5323 5.29838 23.4363 4.89038 23.2443 4.57038C23.0603 4.25038 22.8043 4.01038 22.4763 3.85038C22.1563 3.69038 21.7923 3.61038 21.3843 3.61038C20.9923 3.61038 20.6363 3.68637 20.3163 3.83837C20.0043 3.99037 19.7563 4.19838 19.5723 4.46238C19.3883 4.72638 19.2963 5.02638 19.2963 5.36238H18.6363C18.6523 4.85838 18.7883 4.41038 19.0443 4.01838C19.3003 3.61838 19.6403 3.30638 20.0643 3.08237C20.4883 2.85037 20.9603 2.73438 21.4803 2.73438C22.0483 2.73438 22.5563 2.85438 23.0043 3.09438C23.4523 3.32638 23.8043 3.67038 24.0603 4.12638C24.3243 4.58238 24.4563 5.13838 24.4563 5.79438V8.91438C24.4563 9.04238 24.4123 9.15038 24.3243 9.23838C24.2363 9.32638 24.1283 9.37038 24.0003 9.37038ZM18.8403 9.37038C18.6963 9.37038 18.5803 9.33038 18.4923 9.25038C18.4123 9.16238 18.3723 9.05038 18.3723 8.91438V3.27438C18.3723 3.13038 18.4123 3.01838 18.4923 2.93838C18.5803 2.85037 18.6963 2.80637 18.8403 2.80637C18.9763 2.80637 19.0843 2.85037 19.1643 2.93838C19.2523 3.01838 19.2963 3.13038 19.2963 3.27438V8.91438C19.2963 9.05038 19.2523 9.16238 19.1643 9.25038C19.0843 9.33038 18.9763 9.37038 18.8403 9.37038Z" fill="black"/>
<path d="M13.1431 9.43205C12.5271 9.43205 11.9751 9.28805 11.4871 9.00005C10.9991 8.70405 10.6111 8.30405 10.3231 7.80005C10.0431 7.29605 9.90308 6.72805 9.90308 6.09605C9.90308 5.45605 10.0471 4.88405 10.3351 4.38005C10.6311 3.87605 11.0311 3.48005 11.5351 3.19205C12.0391 2.89605 12.6071 2.74805 13.2391 2.74805C13.8711 2.74805 14.4351 2.89605 14.9311 3.19205C15.4351 3.48005 15.8311 3.87605 16.1191 4.38005C16.4151 4.88405 16.5671 5.45605 16.5751 6.09605L16.2031 6.38405C16.2031 6.96005 16.0671 7.48005 15.7951 7.94405C15.5311 8.40005 15.1671 8.76405 14.7031 9.03605C14.2471 9.30005 13.7271 9.43205 13.1431 9.43205ZM13.2391 8.59205C13.7031 8.59205 14.1151 8.48405 14.4751 8.26805C14.8431 8.05205 15.1311 7.75605 15.3391 7.38005C15.5551 6.99605 15.6631 6.56805 15.6631 6.09605C15.6631 5.61605 15.5551 5.18805 15.3391 4.81205C15.1311 4.43605 14.8431 4.14005 14.4751 3.92405C14.1151 3.70005 13.7031 3.58805 13.2391 3.58805C12.7831 3.58805 12.3711 3.70005 12.0031 3.92405C11.6351 4.14005 11.3431 4.43605 11.1271 4.81205C10.9111 5.18805 10.8031 5.61605 10.8031 6.09605C10.8031 6.56805 10.9111 6.99605 11.1271 7.38005C11.3431 7.75605 11.6351 8.05205 12.0031 8.26805C12.3711 8.48405 12.7831 8.59205 13.2391 8.59205ZM16.1071 9.37205C15.9711 9.37205 15.8591 9.33205 15.7711 9.25205C15.6831 9.16405 15.6391 9.05205 15.6391 8.91605V6.86405L15.8671 5.91605L16.5751 6.09605V8.91605C16.5751 9.05205 16.5311 9.16405 16.4431 9.25205C16.3551 9.33205 16.2431 9.37205 16.1071 9.37205Z" fill="black"/>
<path d="M8.64379 9.372C8.32379 9.372 8.03579 9.284 7.77979 9.108C7.53179 8.932 7.33579 8.688 7.19179 8.376C7.05579 8.064 6.98779 7.704 6.98779 7.296V0.456C6.98779 0.32 7.02779 0.212 7.10779 0.132C7.19579 0.0439999 7.30779 0 7.44379 0C7.57979 0 7.68779 0.0439999 7.76779 0.132C7.85579 0.212 7.89979 0.32 7.89979 0.456V7.296C7.89979 7.64 7.96779 7.92 8.10379 8.136C8.24779 8.352 8.42779 8.46 8.64379 8.46H8.94379C9.06379 8.46 9.15979 8.504 9.23179 8.592C9.30379 8.672 9.33979 8.78 9.33979 8.916C9.33979 9.052 9.28779 9.164 9.18379 9.252C9.08779 9.332 8.95979 9.372 8.79979 9.372H8.64379Z" fill="black"/>
<path d="M0.468 9.372C0.332 9.372 0.22 9.328 0.132 9.24C0.044 9.152 0 9.04 0 8.904V0.468C0 0.332 0.044 0.22 0.132 0.132C0.22 0.0439999 0.332 0 0.468 0H2.868C3.46 0 3.984 0.132 4.44 0.396C4.896 0.652 5.252 1.008 5.508 1.464C5.764 1.92 5.892 2.448 5.892 3.048C5.892 3.632 5.764 4.152 5.508 4.608C5.252 5.056 4.896 5.412 4.44 5.676C3.984 5.932 3.46 6.06 2.868 6.06H0.936V8.904C0.936 9.04 0.892 9.152 0.804 9.24C0.716 9.328 0.604 9.372 0.468 9.372ZM0.936 5.16H2.868C3.276 5.16 3.64 5.072 3.96 4.896C4.28 4.712 4.528 4.46 4.704 4.14C4.888 3.82 4.98 3.456 4.98 3.048C4.98 2.624 4.888 2.252 4.704 1.932C4.528 1.612 4.28 1.36 3.96 1.176C3.64 0.992 3.276 0.9 2.868 0.9H0.936V5.16Z" fill="black"/>
</svg>
